<svg viewBox="0 0 988.221 158.598">
	<g>
		<path d="M0,158.598L33.6,0h20.399c9.6,0,18.2,1.2,14.2,20.2L43,138.398c-4,19-13,20.2-22.6,20.2H0z M14.4,146.598h6.8 c7.8,0,9-4.4,10.2-10.2L55.599,22.2c1.6-7.6,1.2-10.2-5.8-10.2H43L14.4,146.598z"/>
		<path d="M55.999,137.598l16-75.399c3.4-13.8,9.6-21,23.799-21c14,0.6,17.4,8.8,14.8,21l-16,75.399c-3.2,12.6-11.4,21-23.8,21 C56.599,158.198,53.399,149.798,55.999,137.598z M83.599,63.999l-15.2,71.799c-1.2,6.4-1.6,10.8,4.8,10.8c7,0,8.6-5.2,9.8-10.8 l15.2-71.799c1.2-6.4,1.6-10.8-4.8-10.8C86.199,53.399,84.799,58.399,83.599,63.999z"/>
		<path d="M190.596,41.199l-34.199,117.398h-15.8l10.6-94.599l-29.399,94.599h-16l15.6-117.398h12.2l-10.8,71.399l-3.6,23.8l7-24 l22-71.199h15.6l-8,70.999l-3.4,24.2l6.4-23.8l19.6-71.399H190.596z"/>
		<path d="M234.994,61.799l-20.399,96.798c-2,0-9.8,0-12,0l20-94.999c1.4-5.8,1.8-10.4-5.2-10.4c-6.6,0-8.8,7.8-10.2,14.6 l-19.2,90.799c-4.2,0-8.4,0-12,0l24.8-117.398h8l1,8.6c2.6-5.6,8.8-8.6,14.2-8.6C233.594,41.199,237.994,48.199,234.994,61.799z"/>
		<path d="M307.99,41.199h13.2l-2.4,12h-13.2l-22.399,105.398h-12l22.4-105.398h-7.4l2.4-12h7.4l4.6-21c2.6-12.4,9.2-19.6,23.4-20.2 h6l-2.6,12h-5.8c-6.4,0-8,4-9.6,10.4L307.99,41.199z"/>
		<path d="M307.793,137.598l16-75.399c3.4-13.8,9.6-21,23.799-21c14,0.6,17.4,8.8,14.8,21l-16,75.399c-3.2,12.6-11.4,21-23.8,21 C308.394,158.198,305.193,149.798,307.793,137.598z M335.393,63.999l-15.2,71.799c-1.2,6.4-1.6,10.8,4.8,10.8c7,0,8.6-5.2,9.8-10.8 l15.2-71.799c1.2-6.4,1.6-10.8-4.8-10.8C337.993,53.399,336.593,58.399,335.393,63.999z"/>
		<path d="M412.392,61.399l-1.8,8c-4,0-8,0-12,0l1.4-6c1.2-5.8,1.6-10.2-5.4-10.2c-6.6,0-8,4.6-9.8,13l-19.6,92.398h-12l24.8-117.398 h8l1,9c1.4-4.8,8.4-9,14.4-9C413.991,41.199,414.591,50.399,412.392,61.399z"/>
		<path d="M489.986,158.598l22.999-108.798l-37.6,108.798h-13.6l8.4-108.798l-23,108.798h-12L468.786,0h16.999l-8.6,110.798 l-1.8,15.4l4.601-15.4L518.586,0h16.999l-33.6,158.598H489.986z"/>
		<path d="M573.585,63.399l-20.2,95.199h-8l-1.399-7c-2.8,5.2-7,7-12,7c-12,0-15.6-6.4-13-20.2l6-28.2 c2.601-12.399,7.399-20.799,22.6-26.199c6.601-2.4,11.399-8.4,12.399-13.8l1.601-6.8c1.2-5.6,1.8-10.2-5.2-10.2 c-6.199,0-8.199,3.8-9.399,10.2l-1.4,6h-11.999l1.399-6c2.601-12.399,9.8-21.6,23.8-22.2 C572.185,41.199,575.984,50.199,573.585,63.399z M555.785,90.399c-2,2.6-3.4,2.8-8.6,5.6c-6.4,3.4-7.801,3.6-9.4,10l-6.4,30.399 c-1.199,5.8-1.799,10.2,5.4,10.2c6.6,0,7.8-3.8,9.4-10.6L555.785,90.399z"/>
		<path d="M576.984,158.598h-12l24.8-117.398h11.999L576.984,158.598z M595.184,8c-1,4.2,1.6,7.4,5.801,7.4c4.199,0,8-3.2,9-7.4 c0.799-4-1.801-7.4-6-7.4C599.783,0.6,595.984,4,595.184,8z"/>
		<path d="M648.983,61.799l-20.399,96.798c-2,0-9.8,0-12,0l20-94.999c1.399-5.8,1.8-10.4-5.2-10.4c-6.601,0-8.8,7.8-10.2,14.6 l-19.199,90.799c-4.2,0-8.4,0-12,0l24.8-117.398h7.999l1,8.6c2.601-5.6,8.801-8.6,14.2-8.6 C647.584,41.199,651.983,48.199,648.983,61.799z"/>
		<path d="M693.584,53.199h-13.2l-22.399,105.398h-12l22.399-105.398h-9.399l2.399-12h9.4L679.584,0h12l-8.801,41.199h13.2 L693.584,53.199z"/>
		<path d="M682.385,137.798l15.999-75.599c3.4-13.8,9.601-21,23.8-21c13,0.4,17.2,9.2,14.8,20.8l-9.399,44.399h-26.6l-6.2,29.399 c-1.2,6.4-1.6,10.8,4.8,10.8c7,0,8.6-5.2,9.8-10.8l1-5.4h12l-1.4,7.4c-3.199,13.2-10.399,20.8-23.8,20.8 C682.984,158.198,679.784,149.998,682.385,137.798z M718.184,94.398l6.4-30.399c1.199-6.4,1.6-10.8-4.8-10.8 c-7,0-8.601,5.2-9.8,10.8l-6.4,30.399H718.184z"/>
		<path d="M787.182,61.799l-20.399,96.798c-2,0-9.8,0-12,0l20-94.999c1.399-5.8,1.8-10.4-5.2-10.4c-6.6,0-8.8,7.8-10.2,14.6 l-19.199,90.799c-4.2,0-8.4,0-12,0l24.8-117.398h8l1,8.6c2.6-5.6,8.8-8.6,14.199-8.6C785.781,41.199,790.182,48.199,787.182,61.799 z"/>
		<path d="M838.581,63.399l-20.199,95.199h-8l-1.4-7c-2.8,5.2-7,7-11.999,7c-12,0-15.601-6.4-13-20.2l6-28.2 c2.6-12.399,7.399-20.799,22.6-26.199c6.6-2.4,11.399-8.4,12.399-13.8l1.6-6.8c1.2-5.6,1.801-10.2-5.199-10.2 c-6.2,0-8.2,3.8-9.4,10.2l-1.399,6h-12l1.399-6c2.601-12.399,9.801-21.6,23.8-22.2C837.182,41.199,840.981,50.199,838.581,63.399z  M820.781,90.399c-2,2.6-3.399,2.8-8.6,5.6c-6.399,3.4-7.8,3.6-9.399,10l-6.4,30.399c-1.2,5.8-1.8,10.2,5.4,10.2 c6.6,0,7.8-3.8,9.399-10.6L820.781,90.399z"/>
		<path d="M888.979,61.799l-20.399,96.798c-2,0-9.8,0-12,0l20-94.999c1.399-5.8,1.8-10.4-5.2-10.4c-6.6,0-8.8,7.8-10.2,14.6 l-19.199,90.799c-4.2,0-8.4,0-12,0l24.8-117.398h8l1,8.6c2.6-5.6,8.8-8.6,14.199-8.6C887.58,41.199,891.979,48.199,888.979,61.799z "/>
		<path d="M885.98,137.598l15.999-75.399c3.4-13.8,9.601-21,23.8-21c14,0.6,17.399,8.8,14.8,21l-1.6,7.2h-12l1.2-5.4 c1.199-6.4,1.6-10.8-4.8-10.8c-7,0-8.601,5.2-9.8,10.8l-15.2,71.799c-1.2,6.4-1.6,10.8,4.8,10.8c7,0,8.6-5.2,9.8-10.8l1-5.4h12 l-1.4,7.2c-3.199,13.2-10.399,21-23.8,21C886.58,158.198,883.38,149.798,885.98,137.598z"/>
		<path d="M932.98,137.798l15.999-75.599c3.4-13.8,9.601-21,23.8-21c13,0.4,17.2,9.2,14.8,20.8l-9.399,44.399h-26.6l-6.2,29.399 c-1.2,6.4-1.6,10.8,4.8,10.8c7,0,8.6-5.2,9.8-10.8l1-5.4h12l-1.4,7.4c-3.199,13.2-10.399,20.8-23.8,20.8 C933.58,158.198,930.38,149.998,932.98,137.798z M968.779,94.398l6.4-30.399c1.199-6.4,1.6-10.8-4.8-10.8c-7,0-8.601,5.2-9.8,10.8 l-6.4,30.399H968.779z"/>
	</g>
</svg>