<svg viewBox="0 0 960 65"><path d="M37.6 50.8c0 0.1 0 0.1-0.1 0.2 0 0.1 0 0.2-0.1 0.2 0 0.1-0.1 0.2-0.1 0.4l-0.2 0.4c-0.1 0.2-0.1 0.4-0.2 0.5l-0.4 0.7c-0.1 0.2-0.2 0.4-0.4 0.7 -0.1 0.2-0.3 0.4-0.5 0.7 -0.1 0.3-0.4 0.5-0.6 0.7 -0.1 0.3-0.4 0.5-0.7 0.7 -0.2 0.3-0.4 0.5-0.7 0.8l-0.9 0.7c-0.3 0.2-0.7 0.5-0.9 0.7l-1.1 0.7c-0.4 0.2-0.8 0.4-1.2 0.5 -0.4 0.2-0.9 0.4-1.3 0.5 -0.5 0.1-0.9 0.2-1.5 0.3 -0.5 0.1-1.1 0.2-1.6 0.3 -2 0.2-3.9 0.1-5.9-0.1 -0.4 0-0.9-0.1-1.2-0.1 -0.4-0.1-0.7-0.1-0.9-0.1 -0.3 0-0.5-0.1-0.7-0.1 -0.1-0.1-0.3-0.1-0.4-0.1 -0.1 0-0.1 0-0.2-0.1h-0.1c-2.3-0.7-3.8-1.5-5.5-2.6 -4-2.6-6.4-7.1-6.4-11.9V2.9L2.5 2h14.3l-1.2 0.9v40.6c0 2.1 0.2 4 0.4 5.6 0.7 3.4 3.2 6.2 6.7 7C26.5 56.9 34.7 55.3 37.6 50.8zM37.6 18.2C37.6 4 31 2 31 2H45.2C37.7 5.4 37.6 18.2 37.6 18.2zM70.9 60.6H56.9c7-4.2 7.3-16.7 7.3-16.7C64.7 57.1 70.9 60.6 70.9 60.6zM98.5 60.5h-8.5l-0.5-0.9L61.8 3l-0.1-0.1 -1.8-0.8h1.5 13.4l21.5 43.9 2.3-9.2V60.5zM98.7 16.7C98.2 5.2 92 2.1 92 2.1h13.9C99 5.8 98.7 16.7 98.7 16.7zM131.7 60.5h-1.2 -12.9l1.2-0.9V3l-1.2-0.9h12.9v57.6L131.7 60.5zM160.6 46.2c-3.1 6.3-7.6 10.5-12 12.5 -2.5 1.2-5.1 1.7-8 1.8 1.5-0.7 2.7-1.8 3.7-3.4 2.9-4.9 3.9-10.8 4.1-16.5 0.2-3.1 0.2-6.1 0.1-9.2 0.1-3.1 0.1-6.1-0.1-9.2 -0.2-5.7-1.2-11.6-4.1-16.5 -0.9-1.5-2.1-2.6-3.7-3.4 2.9 0.2 5.5 0.7 8 1.8 4.4 2 8.9 6.2 12 12.5 2 4 3.1 9.2 3.2 14.8C163.7 37.1 162.6 42.3 160.6 46.2zM188.5 58.2c0 1 0.4 1.8 1.2 2.4h-12.9 -1.2c0.7-0.6 1.2-1.4 1.2-2.3V4.4c0-0.9-0.4-1.8-1.2-2.3h1.2 11.7V58.2zM202.7 21.8V21.7c0.1-0.2 0.2-0.7 0.3-1.2v18c-0.1-0.6-0.2-1-0.3-1.2 -1.8-4.8-4.5-7.2-9-7.8C198.2 28.8 200.8 26.5 202.7 21.8zM195.1 2.1h17v17.1C211.5 15.6 208.6 3.2 195.1 2.1zM214.3 42.4v18.2h-19.2C199.1 59.9 213 56.8 214.3 42.4zM239 59.6l1.2 0.9h-14.1l1.2-0.9V3l-1.2-0.9h13V59.6zM248.1 2.4c3.2 0.2 7.8 0.7 11.5 2.6 4.5 2.3 6.8 5.7 6.8 10.3 0 2.1-0.5 4.1-1.5 5.7 -1.2 2.1-3.6 4-7 5.4 -3 1.2-5.9 1.9-7 2.1l-2.6 0.4c0.7-0.3 1.2-0.7 1.8-1.3 1.3-1.7 1.9-4.8 1.9-10.8 0-3.1-0.1-6.4-0.5-9.1C251.4 5.1 250.3 3.3 248.1 2.4zM273.6 59.4c-0.4 0.6-4.4 5.1-12.7 3.1 -8.9-2.1-8.9-10.9-8.9-10.9s0.4-19.8-3.8-20.5c0 0 13.3 0.6 17.2 11.7 1.8 5 0.1 10.3 1.3 15.3 0.2 0.4 0.2 0.7 0.4 1.1 0.5 1.3 2.1 2 3.5 1.5C271.9 60.3 273.3 59.8 273.6 59.4zM273.7 59.4c0 0 0 0.1-0.1 0.1L273.7 59.4zM361.7 50.6c0 0-6.9 9.9-21.3 9.6 -0.7 0-2.1-0.1-3.3-0.3 -1-0.1-2-0.3-3-0.6 -2.7-0.7-5.2-1.7-7.2-2.9 -4.2-2.6-7.4-6.4-9.5-11 -1.8-3.8-2.7-8.3-2.7-12.4 0-4.6 1.1-9.8 3.2-14.4 2.3-5.3 5.8-9.5 10-12.3 3.6-2.3 7.1-3.6 10-4.2 -4.7 3.7-7 12-7 24.8v8.8c0 2.3 0.2 5 0.5 7.8 0.6 5 3.8 9.2 8.5 11.1C344.4 56.4 351.4 56.4 361.7 50.6zM361.7 10.8l-0.1-6.9c-2.2 4.9-12.4 0-12.4 0 11.9 8.1 12.5 20.4 12.5 20.4V10.8zM387.1 14.6c-0.4 3.9-0.4 8.6-0.4 16 0 8.9 0 16.1 0.7 21 0.7 4.9 2 7.6 4.5 8.9 0 0.1 0.1 0.1 0.1 0.1 -2.3-0.1-2.6-0.5-5-1.4 -4.5-1.6-8-4.9-10.8-10.1 -1.2-2.2-2.2-5-2.9-8.1 -0.7-3-1-6.4-1-9.5 0-5.9 1.3-11.5 3.4-15.7 3.3-6.1 7-10 11.6-11.9 2.6-1.1 3.3-1.6 6.3-1.8 -1.6 0.7-2.9 1.8-3.8 3.3C388.3 7.6 387.5 10.4 387.1 14.6zM421.9 31.4c0 3.2-0.4 6.5-1.1 9.5 -0.7 3.1-1.6 5.9-2.9 8.1 -2.7 5.2-6.2 8.5-10.8 10.1 -2.3 0.9-2.6 1.3-4.9 1.4l0.1-0.1c2.5-1.2 3.8-4 4.5-8.9 0.7-4.8 0.7-12 0.7-20.9 0-7.4 0-12.2-0.4-16 -0.4-4.2-1.2-7-2.6-9.2 -0.9-1.5-2.3-2.6-3.9-3.3 3 0.2 3.7 0.7 6.4 1.8 4.5 2 8.2 5.8 11.5 11.9C420.6 19.9 421.9 25.5 421.9 31.4zM402.2 60.5h0.1H402.2zM446.5 60.6h-14c7-4.2 7.3-16.7 7.3-16.7C440.2 57.1 446.5 60.6 446.5 60.6zM474.1 60.5h-8.5l-0.5-0.9L437.3 3l-0.1-0.1 -1.8-0.8h1.5 13.4l21.5 43.9 2.3-9.2V60.5zM474.2 16.7c-0.5-11.5-6.7-14.6-6.7-14.6h13.9C474.5 5.8 474.2 16.7 474.2 16.7zM532.6 42.4c-0.3 5.3-2.3 10.2-5.9 13.7 -1.8 1.8-3.4 3.1-5 4 0.2-0.1 0.8-0.8 1-1 0.9-0.9 1.3-2.2 1.6-3.4 0.4-1.3 0.6-2.7 0.7-4 0.2-4.5-1.5-8.1-4.8-10.8 -2.6-2.2-5.9-3.4-8.3-4.2l-4.2-1.5c-4.5-1.6-7.8-3.5-10.1-5.9 -1.4-1.5-2.5-3.1-3.1-5 -0.8-2-1.2-4.3-1-6.9 0.1-2.9 0.9-5.9 2.3-8.3 1.3-2.3 3.9-4.9 7.3-6.8 -0.2 0.7-1.2 3.6-1.3 5.6 -0.1 4.8 1.4 8.5 4.6 11.2 2.6 2.1 5.6 3 7.2 3.5 0.2 0.1 0.3 0.1 0.4 0.2l3.4 1c0.2 0.1 0.4 0.2 0.5 0.2l0.1 0.1c2.3 0.7 6.2 1.9 9.5 4.7 1.7 1.5 3.1 3.2 4 5.3C532.2 36.2 532.7 39.1 532.6 42.4zM507.5 59.5c0 0-9.7-4.7-11.9 0l-0.1-6.6V40C495.5 40 496.2 51.8 507.5 59.5zM519 2.1c0 0 9.5 4.5 11.6 0l0.1 6.5v12.5C530.6 21 530 9.5 519 2.1zM542.8 2.1h14.7c-11.6 1.2-14.1 13.5-14.6 17.1V2.1zM572.7 59.6l1.2 0.9h-1.2H561h-1.2l1.2-0.9V2.1h11.7V59.6zM590.7 2.1v17.1c-0.4-3.6-2.9-15.9-14.4-17.1H590.7zM614 59.6l1.2 0.9h-14.1l1.2-0.9V3l-1.2-0.9h13V59.6zM623.1 2.4c3.2 0.2 7.8 0.7 11.5 2.6 4.5 2.3 6.8 5.7 6.8 10.3 0 2.1-0.5 4.1-1.5 5.7 -1.2 2.1-3.6 4-7 5.4 -3 1.2-5.9 1.9-7 2.1l-2.6 0.4c0.7-0.3 1.2-0.7 1.8-1.3 1.3-1.7 1.9-4.8 1.9-10.8 0-3.1-0.1-6.4-0.5-9.1C626.3 5.1 625.2 3.3 623.1 2.4zM648.6 59.4c-0.4 0.6-4.4 5.1-12.7 3.1 -8.9-2.1-8.9-10.9-8.9-10.9s0.4-19.8-3.8-20.5c0 0 13.3 0.6 17.2 11.7 1.8 5 0.1 10.3 1.3 15.3 0.2 0.4 0.2 0.7 0.4 1.1 0.5 1.3 2.1 2 3.5 1.5C646.8 60.3 648.3 59.8 648.6 59.4zM648.7 59.4c0 0 0 0.1-0.1 0.1L648.7 59.4zM692.5 50.8c0 0.1 0 0.1-0.1 0.2 0 0.1 0 0.2-0.1 0.2 0 0.1-0.1 0.2-0.1 0.4l-0.2 0.4c-0.1 0.2-0.1 0.4-0.2 0.5l-0.4 0.7c-0.1 0.2-0.2 0.4-0.4 0.7 -0.1 0.2-0.3 0.4-0.5 0.7 -0.1 0.3-0.4 0.5-0.6 0.7 -0.1 0.3-0.4 0.5-0.7 0.7 -0.2 0.3-0.4 0.5-0.7 0.8l-0.9 0.7c-0.3 0.2-0.7 0.5-0.9 0.7l-1.1 0.7c-0.4 0.2-0.8 0.4-1.2 0.5 -0.4 0.2-0.9 0.4-1.3 0.5 -0.5 0.1-0.9 0.2-1.5 0.3 -0.5 0.1-1.1 0.2-1.6 0.3 -2 0.2-4 0.1-5.9-0.1 -0.4 0-0.9-0.1-1.2-0.1 -0.4-0.1-0.7-0.1-0.9-0.1 -0.3 0-0.5-0.1-0.7-0.1 -0.1-0.1-0.3-0.1-0.4-0.1 -0.1 0-0.1 0-0.2-0.1h-0.1c-2.3-0.7-3.8-1.5-5.5-2.6 -4-2.6-6.4-7.1-6.4-11.9V2.9L657.5 2h14.3l-1.2 0.9v40.6c0 2.1 0.2 4 0.4 5.6 0.7 3.4 3.2 6.2 6.7 7C681.5 56.9 689.7 55.3 692.5 50.8zM692.5 18.2c0-14.2-6.6-16.2-6.6-16.2h14.2C692.6 5.4 692.5 18.2 692.5 18.2zM755.2 50.6c0 0-6.9 9.9-21.3 9.6 -0.7 0-2.1-0.1-3.3-0.3 -1-0.1-2-0.3-3-0.6 -2.7-0.7-5.2-1.7-7.2-2.9 -4.2-2.6-7.4-6.4-9.5-11 -1.8-3.8-2.7-8.3-2.7-12.4 0-4.6 1.1-9.8 3.2-14.4 2.3-5.3 5.8-9.5 10-12.3 3.6-2.3 7.1-3.6 10-4.2 -4.7 3.7-7 12-7 24.8v8.8c0 2.3 0.2 5 0.5 7.8 0.6 5 3.8 9.2 8.5 11.1C737.9 56.4 744.9 56.4 755.2 50.6zM755.2 10.8l-0.1-6.9c-2.2 4.9-12.4 0-12.4 0 11.9 8.1 12.5 20.4 12.5 20.4V10.8zM762.5 2.1h14.7c-11.6 1.2-14.1 13.5-14.6 17.1V2.1zM792.5 59.6l1.2 0.9h-1.2 -11.7 -1.2l1.2-0.9V2.1h11.7V59.6zM810.5 2.1v17.1c-0.4-3.6-2.9-15.9-14.4-17.1H810.5zM836.3 60.5h-1.2H823.4h-1.2l1.2-0.9V3l-1.2-0.9h1.2 12.8l-1.1 0.8v56.8L836.3 60.5zM863.1 14.6c-0.4 3.9-0.4 8.6-0.4 16 0 8.9 0 16.1 0.7 21 0.7 4.9 2 7.6 4.5 8.9 0 0.1 0.1 0.1 0.1 0.1 -2.3-0.1-2.6-0.5-5-1.4 -4.5-1.6-8-4.9-10.8-10.1 -1.2-2.2-2.2-5-2.9-8.1 -0.7-3-1-6.4-1-9.5 0-5.9 1.2-11.5 3.4-15.7 3.3-6.1 7-10 11.6-11.9 2.6-1.1 3.3-1.6 6.3-1.8 -1.6 0.7-2.9 1.8-3.8 3.3C864.3 7.6 863.5 10.4 863.1 14.6zM897.9 31.4c0 3.2-0.4 6.5-1.1 9.5 -0.7 3.1-1.6 5.9-2.9 8.1 -2.7 5.2-6.2 8.5-10.8 10.1 -2.3 0.9-2.6 1.3-4.9 1.4l0.1-0.1c2.5-1.2 3.8-4 4.5-8.9 0.7-4.8 0.7-12 0.7-20.9 0-7.4 0-12.2-0.4-16 -0.4-4.2-1.2-7-2.6-9.2 -0.9-1.5-2.3-2.6-3.9-3.3 3 0.2 3.7 0.7 6.4 1.8 4.5 2 8.2 5.8 11.5 11.9C896.6 19.9 897.9 25.5 897.9 31.4zM878.2 60.5h0.1H878.2zM922.5 60.6H908.5c7-4.2 7.3-16.7 7.3-16.7C916.3 57.1 922.5 60.6 922.5 60.6zM950.1 60.5h-8.5l-0.5-0.9L913.3 3l-0.1-0.1 -1.8-0.8h1.5 13.4l21.5 43.9 2.3-9.2V60.5zM950.3 16.7c-0.5-11.5-6.7-14.6-6.7-14.6h13.9C950.5 5.8 950.3 16.7 950.3 16.7z"/></svg>